<?xml version="1.0" encoding="utf-8"?>
<!-- Generator: Adobe Illustrator 18.1.1, SVG Export Plug-In . SVG Version: 6.00 Build 0)  -->
<svg version="1.1" id="Layer_1" xmlns="http://www.w3.org/2000/svg" xmlns:xlink="http://www.w3.org/1999/xlink" x="0px" y="0px"
	 viewBox="0 0 253.9 225.5" enable-background="new 0 0 253.9 225.5" xml:space="preserve">
<path fill="#FFFFFF" stroke="#3DBCED" stroke-width="5" stroke-miterlimit="10" d="M6.1,148.7c0,31.8,25.8,57.5,57.5,57.5
	c5.2,0,10.2-0.7,15-2c13.9,9.7,30.8,15.3,49,15.3c41.3,0,75.8-29.2,84-68.1c21.9-8.1,37.4-29.2,37.4-53.9
	c0-31.8-25.8-57.5-57.5-57.5c-13.6,0-26,4.7-35.9,12.6c-8.8-3.1-18.2-4.7-28.1-4.7c-32.4,0-60.6,17.9-75.2,44.4
	C26,97.5,6.1,120.8,6.1,148.7z"/>
<path opacity="0.7" fill="#D72027" d="M163.6,97.4h-2.5l-1.9-0.8l-1.8-0.1l-3.6-0.8c0,0-2.1-0.8-2.6-1s-2.9-0.8-2.9-0.8l-3.1-1.5
	c0,0-4.8-0.6-5.4-0.8s-3,0-3,0l-2.3,0.4c0,0-4.3,1-4.8,0.8s-2.2,0-2.2,0h-5.6l-3.4-0.6l-3.5-0.7h-4.9c0,0-2.6,0.7-4.1,1.2
	s-3.1,1.4-4,1.6s-2.8,1.2-3.5,2s-2.8,2.5-3.1,3s-1,1.4-2.3,1.5s-3.4,0.9-3.4,0.9l-3.6,1.6c0,0-2.3,0.6-2.8,0.8s-3.3,0.8-3.3,0.8
	l-1.5,0.8c0,0-0.3,0.1-0.6,0.6s-1.4,1.9-1.8,2s-1.3,1.4-1.4,2s-0.8,1.9-0.8,1.9s-0.4,0.4-0.9,1.1s-0.9,1-1.6,1.4s-1.9,1-3,1.4
	s-3.5,1.6-4.3,2.1c-0.7,0.5-2.6,2-3.4,2.4s-1.4,0.8-2.1,1.1s-2.8,1.3-3.5,1.9s-3.1,2-3.1,2l-1.6,1.1c0,0-1.6,1.4-2.1,1.4
	s-0.6,1.4-2.5,1.8s-6,1.4-6,1.4s-1.3,1.8-2.5,1.9s-3.8,1.9-3.8,1.9s-0.3,1.9-0.6,1.9s-1.6,0.9-2.4,1s-1.8,0.6-3,1s-2.8,0-2.8,0v2.3
	c0,0-1,1-1.5,1.5s1.1-0.9-0.5,0.5s-1.4,1.6-2,2s-0.9,0.9-1.1,1.4s0.4,1.4,0,1.8s2.8-1.3,2.8-1.3l-0.6,2.1h2.6l2.3-1.9l2.5-1.1
	l-1.5,2.1l5.4-2.3l-1.9,3.1l4.1-3.8l0.1,2.1l3.5-3.3l1.8,0.4l1.8,0.8l1.9-0.6l3.6-0.6l2-0.5c0,0,1.1-1,1.5-1.1s3.6-1.5,3.6-1.5
	s3.1-1,3.5-1.3s1.4-0.5,1.8-0.6s4.6-1.8,4.6-1.8l1.9-1.8l2.4-1.8l2.4-1.8l4-1.3l2.3-1.3l4-0.8l2.9-0.6l-1,2.3l-1,2l-1.9,1.8
	c0,0-0.4,0.5-0.8,1.1s-0.9,1.3-0.9,2s-0.1,0.8-0.9,1.1s-1,0.6-1.4,1s-1.8,1.6-1.8,1.6s-1.3,0.6-1.6,0.8s-2.5,1.1-2.5,1.1l-1.6,0.2
	l-0.9,0.4v1.9c0,0,0,1.4-0.1,1.8s-1.5,4.1-1.5,4.1l-0.6,2.4l-0.6,1.9l-0.9,2.6l-0.5,3.1l-0.9,2l-0.9,3.5l-0.3,2.8l-1,3.9v2.6
	l0.6,1.8l1.6,0.6h2.1h2.1l1.8,0.8h1.1h2.5h2.6l1-1l1.3-0.9l-1.4-1.9l-0.9-1.5l-1.4-0.9l-1.3-0.5l-1.3-0.5l0.4-3.4l0.5-2.4v-1.6
	l0.4-3.1l1.4-3.4l1.6-2.6l1.3-2.1l1.9-1.1l1.6-1.5c0,0,2.8-0.5,3.1-0.6s4.5-0.1,4.5-0.1l3.1-0.6l2.2-0.6l4.6-1.5l4-1.8
	c0,0,2.1-1,3.1-1.6s3.1-2.4,3.1-2.4s2.3-2,2.6-2s2-1.4,2.4-1.4s2.1,0,2.1,0l1.4,1.1l0.3,1.9l-0.3,2.1c0,0-1.6,2.9-1.9,3.3
	s-1.4,2.5-1.4,2.5l-1.6,2.3c0,0-0.9,1.3-1,1.6s-1.4,2.1-1.4,2.1l-0.9,1.1l-0.9,1.8l0.1,2.4l2,1.9l3.6,2.3l1.4,1l2.9,2.1l2.3,1.5
	l2.8,2l2.4,2.4l3,0.8l2.5-0.1c0,0,0.5,1.4-0.3,1.9s-1.9,1.8-2.1,2.3s0.6,1.1-0.5,2c-1.1,0.9-0.3,1.7-0.3,1.7s0.7,0.1,1.1,0.2
	s2.8,0.6,3.9,0.9s4.9-0.6,5.3,0s3.5,0.6,3.5,0.6h3.6l2-0.9l1.1-1.4l0.1-1.5c0,0-1.1-1.1-1.5-1.1s-1.8-1.5-1.8-1.5l-1.5-1l-0.4-2
	l1.1-3l1.8-2.8l1.9-2.3l3.3-3.6l2-2.6c0,0,1.1-1.5,1.4-1.9s3.5-3.8,3.5-3.8l0.8-1l2,0.1l2.6,1.4l2.4,1.3l2.6,1.6c0,0,0,1.8,0,2.4
	s0.5,1.1,0.6,2s-0.4,2.1,0,3.4s-0.1,2.4,0,2.9c0.1,0.5,1.2,2,1.2,2.4s2.8,2.5,2.8,2.5s1.8,1.1,2.6,1.6s3.9,1.5,3.9,1.5l1.5,0.4
	l1.9-2.4v-2.3v-3.3v-3.3l-1.1-2.9l-1.9-2.5l-1.1-3.3l-0.4-2.6l-0.8-3.1l-1.3-2.3l-0.9-1.5c0,0-1.1-1.4-1.4-1.8s-1.3-1.6-1.6-1.6
	s-1.1-0.8-1.1-0.8l3.9-0.9l1.3-0.9l3.4-1.8l3-3.4l1.3-2.9l1.1-2.9l2.2-2.8l0.8-0.9l1.4-2.1l1.4-1.8l1.9-0.3l2-0.4l2.8-0.5l4.4-0.3
	l3.3-0.8l2.4-0.1l2.4-0.3l3.3-0.3l2.1-0.4l2.4-0.3l1.1-1.1l1.9-0.3l1.6-1.5l1.6-0.9l1.5-1.4v-1.1l-2-2.9l-1.3-2.1l-1.5-1.4l-0.6-0.6
	v-2.3l1.4-0.9l0.6-4l-0.6-2.1l-1.4-3l-1.9-3l-2.4-3.3l-2.3-1.9l-2.8-2l-2.8-2l-2-0.9l-2.4-1.4l-2.3-0.9l-2.6-0.6l-1.9-0.9l-2.4-0.8
	l-2.3-0.3h-1.8h-2.1l-1.4,1.1c0,0-0.8,0.4-1.5,0.6s-1.1,0.6-1.5,0.8s-1.5,0.5-1.5,0.5h-1.8l-1.1-0.1l-2.1-0.4l-3.3-1.1l-2.9-1.4
	l-2.9-0.8l-2.6,0.1h-1.4h-2.8l-1.2-0.1l-2.4-0.8c0,0-2.2-0.4-2.6-0.8s-2.3-0.8-2.3-0.8l-3.2-0.8l-1.3,0.2h-3l-0.9,1.1l1,1.8l0.5,1.8
	l2.1,3.1l1.1,1.9l2.3,2.6l1.9,2.4l1.8,2.1l1.9,2l1.1,1.7l1.5,1.1l1.1,1.5L163.6,97.4"/>
<path fill="#FFFFFF" d="M145.8,142.9l-1.6,1.1l-2.6,1.5l-2,1.3l-3.9,1.3c0,0-2.4,1.6-3,1.9s-3.9,1.6-3.9,1.6l-1.9,1l-1.8,1.9
	c0,0-0.4,0.9-1,1.6s-1.5,1.8-1.5,1.8l0.8,2.6l1.5,1l2.3,0.9l2,0.9l2.3,1.1l1.9,0.8l1.6,0.9l1.6-2l1.1-2.8l1-1.9l1.1-1.6l1.1-2.4
	l0.6-2.3l0.7-2.1c0,0,0.8-1.1,0.9-1.6s0.8-3.4,0.8-3.4l1-1.1L145.8,142.9z"/>
<text transform="matrix(0.9143 -0.4051 0.4051 0.9143 33.3276 180.2761)" fill="#010101" font-family="'Rockwell'" font-size="49.9085">historian</text>
<path id="SVGID_x5F_1_x5F_" fill="none" d="M223.2,166.3c-17.5,52.4-74.3,80.7-126.7,63.2s-80.7-74.3-63.2-126.7
	S107.6,22.1,160,39.6S240.8,113.9,223.2,166.3z"/>
<text><textPath  xlink:href="#SVGID_x5F_1_x5F_" startOffset="-62.1663%">
<tspan  fill="#55B949" font-family="'Rockwell'" font-size="32">one crafty</tspan></textPath>
</text>
</svg>
