<?xml version="1.0" encoding="utf-8"?>
<!-- Generator: Adobe Illustrator 18.1.1, SVG Export Plug-In . SVG Version: 6.00 Build 0)  -->
<svg version="1.1" id="Layer_1" xmlns="http://www.w3.org/2000/svg" xmlns:xlink="http://www.w3.org/1999/xlink" x="0px" y="0px"
	 viewBox="140.7 555.7 47.3 36.7" enable-background="new 140.7 555.7 47.3 36.7" xml:space="preserve">
<path fill="#FFFFFF" d="M420,255.7l2,1.3l3.2,1.8l2.4,1.6l4.8,1.6c0,0,2.9,2,3.7,2.3s4.8,2,4.8,2l2.3,1.2l2.2,2.3c0,0,0.5,1.1,1.2,2
	c0.7,0.9,1.8,2.2,1.8,2.2l-1,3.2l-1.8,1.2l-2.8,1.1l-2.4,1.1l-2.8,1.3l-2.3,1l-2,1.1l-2-2.4l-1.3-3.4l-1.2-2.3l-1.3-2L426,271
	l-0.7-2.8l-0.9-2.6c0,0-1-1.3-1.1-2s-1-4.2-1-4.2l-1.2-1.3L420,255.7z"/>
<path fill="#FFFFFF" d="M184.7,351.8l-2,1.3l-3.2,1.8l-2.4,1.6l-4.8,1.6c0,0-2.9,2-3.7,2.3c-0.7,0.4-4.8,2-4.8,2l-2.3,1.2l-2.2,2.3
	c0,0-0.5,1.1-1.2,2s-1.8,2.2-1.8,2.2l1,3.2l1.8,1.2l2.8,1.1l2.4,1.1l2.8,1.3l2.3,1l2,1.1l2-2.4l1.3-3.4l1.2-2.3l1.3-2l1.3-2.9
	l0.7-2.8l0.9-2.6c0,0,1-1.3,1.1-2c0.1-0.6,1-4.2,1-4.2l1.2-1.3L184.7,351.8z"/>
<path fill="#FFFFFF" stroke="#3DBCED" stroke-width="2" stroke-miterlimit="10" d="M151.4,567.4c2.6-4.7,7.6-7.9,13.4-7.9
	c1.8,0,3.4,0.3,5,0.8c1.8-1.4,4-2.2,6.4-2.2c5.7,0,10.3,4.6,10.3,10.3c0,4.4-2.8,8.2-6.7,9.6c-1.5,6.9-7.6,12.1-15,12.1
	c-3.2,0-6.3-1-8.7-2.7c-0.9,0.2-1.7,0.4-2.7,0.4c-5.7,0-10.3-4.6-10.3-10.3C143.2,572.4,146.7,568.3,151.4,567.4z"/>
<path opacity="0.7" fill="#D72027" enable-background="new    " d="M171.2,568.3l-0.4-0.5l-0.2-0.3l-0.3-0.2l-0.2-0.3l-0.3-0.4
	l-0.3-0.4l-0.3-0.4l-0.4-0.5l-0.2-0.3l-0.4-0.6l-0.1-0.3l-0.2-0.3l0.2-0.2h0.5l0.2,0l0.6,0.1c0,0,0.3,0.1,0.4,0.1
	c0.1,0.1,0.5,0.1,0.5,0.1l0.4,0.1l0.2,0h0.5h0.2l0.5,0l0.5,0.1l0.5,0.2l0.6,0.2l0.4,0.1l0.2,0h0.3c0,0,0.2-0.1,0.3-0.1
	c0.1,0,0.1-0.1,0.3-0.1c0.1,0,0.3-0.1,0.3-0.1l0.2-0.2h0.4h0.3l0.4,0.1l0.4,0.1l0.3,0.2l0.5,0.1l0.4,0.2l0.4,0.2l0.4,0.2l0.5,0.4
	l0.5,0.4l0.4,0.3l0.4,0.6l0.3,0.5l0.2,0.5l0.1,0.4l-0.1,0.7l-0.2,0.2v0.4l0.1,0.1l0.3,0.2l0.2,0.4l0.4,0.5v0.2l-0.3,0.2l-0.3,0.2
	l-0.3,0.3l-0.3,0.1l-0.2,0.2l-0.4,0.1l-0.4,0.1l-0.6,0.1l-0.4,0.1l-0.4,0l-0.6,0.1l-0.8,0.1l-0.5,0.1l-0.4,0.1l-0.3,0.1l-0.2,0.3
	l-0.2,0.4l-0.1,0.2l-0.4,0.5l-0.2,0.5l-0.2,0.5l-0.5,0.6l-0.6,0.3l-0.2,0.2l-0.7,0.2c0,0,0.1,0.1,0.2,0.1s0.2,0.2,0.3,0.3
	c0.1,0.1,0.2,0.3,0.2,0.3l0.2,0.3l0.2,0.4l0.1,0.6l0.1,0.5l0.2,0.6l0.3,0.4l0.2,0.5v0.6v0.6v0.4l-0.3,0.4l-0.3-0.1
	c0,0-0.6-0.2-0.7-0.3c-0.1-0.1-0.5-0.3-0.5-0.3s-0.5-0.4-0.5-0.4c0-0.1-0.2-0.3-0.2-0.4c0-0.1,0.1-0.3,0-0.5s0-0.4,0-0.6
	s-0.1-0.2-0.1-0.4c0-0.1,0-0.4,0-0.4l-0.5-0.3l-0.4-0.2l-0.5-0.2l-0.4,0l-0.1,0.2c0,0-0.6,0.6-0.6,0.7s-0.2,0.3-0.2,0.3l-0.4,0.5
	l-0.6,0.6l-0.3,0.4l-0.3,0.5l-0.2,0.5l0.1,0.4l0.3,0.2c0,0,0.2,0.3,0.3,0.3c0.1,0,0.3,0.2,0.3,0.2l0,0.3l-0.2,0.2l-0.4,0.2h-0.6
	c0,0-0.6,0-0.6-0.1c-0.1-0.1-0.7,0.1-0.9,0c-0.2-0.1-0.6-0.1-0.7-0.2c-0.1,0-0.2,0-0.2,0s-0.1-0.1,0.1-0.3s0.1-0.3,0.1-0.4
	c0-0.1,0.2-0.3,0.4-0.4c0.1-0.1,0.1-0.3,0.1-0.3l-0.4,0l-0.5-0.1l-0.4-0.4l-0.5-0.4l-0.4-0.3l-0.5-0.4l-0.2-0.2l-0.6-0.4l-0.4-0.3
	l0-0.4l0.2-0.3l0.2-0.2c0,0,0.2-0.3,0.2-0.4c0-0.1,0.2-0.3,0.2-0.3l0.3-0.4c0,0,0.2-0.4,0.2-0.4c0.1-0.1,0.3-0.6,0.3-0.6l0.1-0.4
	l-0.1-0.3l-0.3-0.2c0,0-0.3,0-0.4,0s-0.4,0.2-0.4,0.2s-0.5,0.4-0.5,0.4s-0.4,0.3-0.6,0.4c-0.2,0.1-0.6,0.3-0.6,0.3l-0.7,0.3
	l-0.8,0.3l-0.4,0.1l-0.6,0.1c0,0-0.7,0-0.8,0c-0.1,0-0.6,0.1-0.6,0.1l-0.3,0.3l-0.3,0.2l-0.2,0.4l-0.3,0.5l-0.2,0.6l-0.1,0.6v0.3
	l-0.1,0.4l-0.1,0.6l0.2,0.1l0.2,0.1l0.2,0.2l0.2,0.3l0.2,0.3l-0.2,0.2l-0.2,0.2h-0.5h-0.5h-0.2l-0.3-0.1h-0.4h-0.4l-0.3-0.1
	l-0.1-0.3v-0.5l0.2-0.7l0.1-0.5l0.2-0.6l0.2-0.4l0.1-0.6l0.2-0.5l0.1-0.3l0.1-0.4c0,0,0.2-0.7,0.3-0.7c0-0.1,0-0.3,0-0.3v-0.3
	l0.2-0.1l0.3,0c0,0,0.4-0.2,0.4-0.2c0.1,0,0.3-0.1,0.3-0.1s0.2-0.2,0.3-0.3c0.1-0.1,0.1-0.1,0.2-0.2c0.1-0.1,0.2-0.1,0.2-0.2
	c0-0.1,0.1-0.2,0.2-0.4c0.1-0.1,0.1-0.2,0.1-0.2l0.3-0.3l0.2-0.4l0.2-0.4l-0.5,0.1L156,574l-0.4,0.2l-0.7,0.2l-0.4,0.3l-0.4,0.3
	l-0.3,0.3c0,0-0.7,0.3-0.8,0.3s-0.2,0.1-0.3,0.1s-0.6,0.2-0.6,0.2s-0.6,0.2-0.6,0.3c-0.1,0-0.3,0.2-0.3,0.2l-0.4,0.1l-0.6,0.1
	l-0.3,0.1l-0.3-0.1l-0.3-0.1l-0.6,0.6l0-0.4l-0.7,0.7l0.3-0.6l-1,0.4l0.3-0.4l-0.4,0.2l-0.4,0.3H146l0.1-0.4c0,0-0.6,0.3-0.5,0.2
	s0-0.2,0-0.3c0-0.1,0.1-0.2,0.2-0.2c0.1-0.1,0.1-0.1,0.4-0.4c0.3-0.2,0,0,0.1-0.1c0.1-0.1,0.3-0.3,0.3-0.3v-0.4c0,0,0.3,0.1,0.5,0
	s0.4-0.2,0.5-0.2c0.1,0,0.4-0.2,0.4-0.2s0.1-0.3,0.1-0.3s0.5-0.3,0.7-0.3c0.2,0,0.4-0.3,0.4-0.3s0.7-0.2,1.1-0.2
	c0.3-0.1,0.4-0.3,0.4-0.3c0.1,0,0.4-0.2,0.4-0.2l0.3-0.2c0,0,0.4-0.2,0.6-0.4c0.1-0.1,0.5-0.3,0.6-0.3s0.2-0.1,0.4-0.2
	c0.1-0.1,0.5-0.3,0.6-0.4s0.6-0.3,0.8-0.4c0.2-0.1,0.4-0.2,0.5-0.2c0.1-0.1,0.2-0.1,0.3-0.2c0.1-0.1,0.2-0.2,0.2-0.2
	s0.1-0.2,0.1-0.3c0-0.1,0.2-0.3,0.2-0.4c0.1,0,0.3-0.3,0.3-0.4c0.1-0.1,0.1-0.1,0.1-0.1l0.3-0.1c0,0,0.5-0.1,0.6-0.1
	c0.1,0,0.5-0.1,0.5-0.1l0.6-0.3c0,0,0.4-0.1,0.6-0.2s0.4-0.2,0.4-0.3c0.1-0.1,0.4-0.4,0.6-0.5s0.5-0.3,0.6-0.4
	c0.2,0,0.4-0.2,0.7-0.3c0.3-0.1,0.7-0.2,0.7-0.2h0.9l0.6,0.1l0.6,0.1h1c0,0,0.3,0,0.4,0c0.1,0,0.9-0.1,0.9-0.1l0.4-0.1
	c0,0,0.4,0,0.5,0s1,0.1,1,0.1l0.6,0.3c0,0,0.4,0.1,0.5,0.1c0.1,0,0.5,0.2,0.5,0.2l0.6,0.1l0.3,0l0.3,0.1H171.2"/>
<path fill="#FFFFFF" d="M167.9,576.7l-0.2,0.2c0,0-0.1,0.5-0.1,0.6c0,0.1-0.2,0.3-0.2,0.3l-0.1,0.4l-0.1,0.4L167,579l-0.2,0.3
	l-0.2,0.3l-0.2,0.5l-0.3,0.4l-0.3-0.2l-0.3-0.1l-0.4-0.2l-0.4-0.2l-0.4-0.1l-0.3-0.2l-0.1-0.5c0,0,0.2-0.2,0.3-0.3
	c0.1-0.1,0.2-0.3,0.2-0.3l0.3-0.3l0.3-0.2c0,0,0.6-0.2,0.7-0.3s0.5-0.3,0.5-0.3l0.7-0.2l0.4-0.2l0.5-0.3l0.3-0.2L167.9,576.7z"/>
</svg>
